<?xml version="1.0" encoding="UTF-8" standalone="no"?>
<!-- Created with Inkscape (http://www.inkscape.org/) -->

<svg
   width="297mm"
   height="210mm"
   viewBox="0 0 297 210"
   version="1.1"
   id="svg5"
   inkscape:version="1.1.2 (0a00cf5339, 2022-02-04, custom)"
   sodipodi:docname="mana-a-mana.svg"
   xmlns:inkscape="http://www.inkscape.org/namespaces/inkscape"
   xmlns:sodipodi="http://sodipodi.sourceforge.net/DTD/sodipodi-0.dtd"
   xmlns="http://www.w3.org/2000/svg"
   xmlns:svg="http://www.w3.org/2000/svg">
  <sodipodi:namedview
     id="namedview7"
     pagecolor="#ffffff"
     bordercolor="#666666"
     borderopacity="1.0"
     inkscape:pageshadow="2"
     inkscape:pageopacity="0.0"
     inkscape:pagecheckerboard="0"
     inkscape:document-units="mm"
     showgrid="false"
     inkscape:zoom="1.0066639"
     inkscape:cx="348.17978"
     inkscape:cy="556.78963"
     inkscape:window-width="1366"
     inkscape:window-height="710"
     inkscape:window-x="1024"
     inkscape:window-y="29"
     inkscape:window-maximized="1"
     inkscape:current-layer="layer1" />
  <defs
     id="defs2" />
  <g
     inkscape:label="Layer 1"
     inkscape:groupmode="layer"
     id="layer1">
    <path
       style="fill:#66ff00;stroke-width:0"
       d="m 193.06107,181.20262 -15.59331,-0.19889 7.91387,-32.0787 c 4.35262,-17.64329 7.96832,-32.15053 8.03489,-32.23829 0.0666,-0.0877 5.01705,14.34768 11.00108,32.07873 5.98404,17.73104 10.93017,32.3691 10.99141,32.52901 0.0612,0.15991 -1.4335,0.24941 -3.32164,0.19889 -1.88814,-0.0505 -10.44997,-0.18136 -19.0263,-0.29075 z"
       id="path966"
       inkscape:export-filename="/home/claudio/mana-a-mana.png"
       inkscape:export-xdpi="40.580002"
       inkscape:export-ydpi="40.580002" />
    <path
       style="fill:#ff2a2a;stroke-width:0"
       d="m 141.38074,182.16748 -16.97163,-0.19729 8.61339,-31.82144 c 4.73736,-17.50178 8.67266,-31.89267 8.74511,-31.97972 0.0725,-0.0871 5.46052,14.23259 11.9735,31.82143 6.51298,17.58885 11.89631,32.10951 11.96296,32.26814 0.0666,0.15862 -1.56021,0.2474 -3.61524,0.19729 -2.05505,-0.0501 -11.37369,-0.1799 -20.70809,-0.28841 z"
       id="path1330"
       inkscape:export-filename="/home/claudio/mana-a-mana.png"
       inkscape:export-xdpi="40.580002"
       inkscape:export-ydpi="40.580002" />
    <path
       style="fill:#d42aff;stroke-width:0"
       d="m 243.38757,181.35558 -15.98524,-0.18993 8.11277,-30.63295 c 4.46203,-16.84813 8.16862,-30.70153 8.23686,-30.78534 0.0682,-0.0838 5.14315,13.70103 11.27758,30.63296 6.13445,16.93194 11.2049,30.91027 11.26768,31.06298 0.0628,0.15269 -1.46954,0.23816 -3.40514,0.18992 -1.9356,-0.0482 -10.71263,-0.17318 -19.50451,-0.27764 z"
       id="path1620"
       inkscape:export-filename="/home/claudio/mana-a-mana.png"
       inkscape:export-xdpi="40.580002"
       inkscape:export-ydpi="40.580002" />
    <path
       style="fill:#ffd42a;stroke-width:0"
       d="m 89.260647,182.52012 -16.075149,-0.18968 8.158407,-30.59283 c 4.487123,-16.82604 8.214548,-30.66129 8.283171,-30.74498 0.06862,-0.0837 5.172085,13.68307 11.341034,30.59281 6.16894,16.90975 11.26791,30.86977 11.33104,31.02227 0.0631,0.15251 -1.4778,0.23786 -3.42428,0.18967 -1.94649,-0.0481 -10.772888,-0.17294 -19.614223,-0.27726 z"
       id="path1812"
       inkscape:export-filename="/home/claudio/mana-a-mana.png"
       inkscape:export-xdpi="40.580002"
       inkscape:export-ydpi="40.580002" />
    <path
       style="fill:#80e5ff;stroke-width:0"
       d="m 38.218686,182.68606 -17.7118,-0.19192 8.989038,-30.95498 c 4.943967,-17.02524 9.050893,-31.02427 9.126497,-31.10896 0.07564,-0.0847 5.698672,13.84506 12.495692,30.95499 6.79701,17.10992 12.415127,31.2352 12.484683,31.38951 0.06952,0.15431 -1.62826,0.24067 -3.772921,0.19192 -2.14466,-0.0488 -11.869694,-0.175 -21.611189,-0.28056 z"
       id="path2022"
       inkscape:export-filename="/home/claudio/mana-a-mana.png"
       inkscape:export-xdpi="40.580002"
       inkscape:export-ydpi="40.580002" />
  </g>
</svg>
