<?xml version="1.0" encoding="UTF-8" standalone="no"?>
<!-- Created with Inkscape (http://www.inkscape.org/) -->

<svg
   width="297mm"
   height="147mm"
   viewBox="0 0 297 147"
   version="1.1"
   id="svg5"
   inkscape:version="1.1.2 (0a00cf5339, 2022-02-04, custom)"
   sodipodi:docname="mana-a-mana.svg"
   xmlns:inkscape="http://www.inkscape.org/namespaces/inkscape"
   xmlns:sodipodi="http://sodipodi.sourceforge.net/DTD/sodipodi-0.dtd"
   xmlns="http://www.w3.org/2000/svg"
   xmlns:svg="http://www.w3.org/2000/svg">
  <sodipodi:namedview
     id="namedview7"
     pagecolor="#ffffff"
     bordercolor="#666666"
     borderopacity="1.0"
     inkscape:pageshadow="2"
     inkscape:pageopacity="0.0"
     inkscape:pagecheckerboard="0"
     inkscape:document-units="mm"
     showgrid="false"
     inkscape:zoom="0.25166598"
     inkscape:cx="170.86139"
     inkscape:cy="73.510134"
     inkscape:window-width="1366"
     inkscape:window-height="710"
     inkscape:window-x="1024"
     inkscape:window-y="29"
     inkscape:window-maximized="1"
     inkscape:current-layer="layer1"
     height="209mm" />
  <defs
     id="defs2" />
  <g
     inkscape:label="Layer 1"
     inkscape:groupmode="layer"
     id="layer1">
    <path
       style="fill:#66ff00;stroke-width:0"
       d="m 187.72431,100.18342 -13.26654,-0.16264 6.73299,-26.232082 c 3.70314,-14.42765 6.77932,-26.290821 6.83596,-26.362586 0.0567,-0.07172 4.26843,11.732692 9.35955,26.232107 5.09112,14.499406 9.29921,26.469551 9.35131,26.600321 0.0521,0.13076 -1.2196,0.20395 -2.82599,0.16264 -1.6064,-0.0413 -8.89067,-0.14831 -16.18728,-0.23776 z"
       id="path966"
       inkscape:export-filename="/home/claudio/mana-a-mana.png"
       inkscape:export-xdpi="40.580002"
       inkscape:export-ydpi="40.580002" />
    <path
       style="fill:#ff2a2a;stroke-width:0"
       d="m 143.7555,100.97243 -14.43919,-0.16133 7.32813,-26.021716 c 4.03047,-14.311931 7.37857,-26.079958 7.4402,-26.151142 0.0617,-0.07123 4.64573,11.638578 10.18687,26.021702 5.54114,14.383132 10.12119,26.257276 10.1779,26.386996 0.0567,0.12971 -1.32741,0.20231 -3.07579,0.16133 -1.74841,-0.041 -9.67656,-0.14711 -17.61812,-0.23584 z"
       id="path1330"
       inkscape:export-filename="/home/claudio/mana-a-mana.png"
       inkscape:export-xdpi="40.580002"
       inkscape:export-ydpi="40.580002" />
    <path
       style="fill:#d42aff;stroke-width:0"
       d="m 230.5413,100.3085 -13.59999,-0.15531 6.90222,-25.049834 c 3.79622,-13.777414 6.94973,-25.105914 7.00779,-25.174449 0.058,-0.06853 4.37571,11.203901 9.59478,25.049842 5.2191,13.845949 9.53296,25.276611 9.58637,25.401491 0.0534,0.12486 -1.25026,0.19475 -2.89704,0.1553 -1.64678,-0.0394 -9.11414,-0.14162 -16.59413,-0.22704 z"
       id="path1620"
       inkscape:export-filename="/home/claudio/mana-a-mana.png"
       inkscape:export-xdpi="40.580002"
       inkscape:export-ydpi="40.580002" />
    <path
       style="fill:#ffd42a;stroke-width:0"
       d="M 99.412549,101.2608 85.736066,101.10569 92.67711,76.088661 c 3.817573,-13.759351 6.988807,-25.073008 7.047191,-25.141445 0.05838,-0.06844 4.400329,11.189214 9.648769,25.017009 5.24844,13.827804 9.58656,25.243495 9.64027,25.368195 0.0537,0.12472 -1.25728,0.19451 -2.91332,0.1551 -1.65605,-0.0393 -9.16541,-0.14142 -16.687471,-0.22672 z"
       id="path1812"
       inkscape:export-filename="/home/claudio/mana-a-mana.png"
       inkscape:export-xdpi="40.580002"
       inkscape:export-ydpi="40.580002" />
    <path
       style="fill:#80e5ff;stroke-width:0"
       d="m 55.986855,101.39649 -15.06892,-0.15694 7.647732,-25.31317 c 4.206249,-13.922244 7.700356,-25.369832 7.764679,-25.439086 0.06435,-0.06926 4.84834,11.321679 10.631137,25.313178 5.782789,13.991491 10.562594,25.542318 10.621771,25.668508 0.05915,0.12618 -1.385298,0.1968 -3.209941,0.15694 -1.824643,-0.0399 -10.098548,-0.14311 -18.386458,-0.22943 z"
       id="path2022"
       inkscape:export-filename="/home/claudio/mana-a-mana.png"
       inkscape:export-xdpi="40.580002"
       inkscape:export-ydpi="40.580002" />
  </g>
</svg>
