<?xml version="1.0" encoding="UTF-8" standalone="no"?>
<!-- Created with Inkscape (http://www.inkscape.org/) -->

<svg
   width="297mm"
   height="210mm"
   viewBox="0 0 297 210"
   version="1.1"
   id="svg14"
   inkscape:version="1.1.2 (0a00cf5339, 2022-02-04, custom)"
   sodipodi:docname="git.svg"
   xmlns:inkscape="http://www.inkscape.org/namespaces/inkscape"
   xmlns:sodipodi="http://sodipodi.sourceforge.net/DTD/sodipodi-0.dtd"
   xmlns="http://www.w3.org/2000/svg"
   xmlns:svg="http://www.w3.org/2000/svg">
  <sodipodi:namedview
     id="namedview16"
     pagecolor="#ffffff"
     bordercolor="#666666"
     borderopacity="1.0"
     inkscape:pageshadow="2"
     inkscape:pageopacity="0.0"
     inkscape:pagecheckerboard="0"
     inkscape:document-units="mm"
     showgrid="false"
     inkscape:zoom="0.24542999"
     inkscape:cx="851.56666"
     inkscape:cy="576.53915"
     inkscape:window-width="1366"
     inkscape:window-height="710"
     inkscape:window-x="1024"
     inkscape:window-y="29"
     inkscape:window-maximized="1"
     inkscape:current-layer="layer1" />
  <defs
     id="defs11" />
  <g
     inkscape:label="Layer 1"
     inkscape:groupmode="layer"
     id="layer1">
    <path
       style="fill:#66ff00;stroke-width:0"
       d="m 203.50727,144.45489 -17.42086,-0.25565 8.84137,-41.23271 c 4.86276,-22.677993 8.90222,-41.325034 8.97659,-41.437845 0.0744,-0.112701 5.60506,18.441946 12.29043,41.232755 6.68537,22.79078 12.21118,41.60598 12.2796,41.81153 0.0684,0.20553 -1.6015,0.32058 -3.71093,0.25564 -2.10943,-0.0649 -11.67471,-0.23312 -21.2562,-0.37372 z"
       id="path966"
       inkscape:export-filename="/home/claudio/mana-a-mana.png"
       inkscape:export-xdpi="40.580002"
       inkscape:export-ydpi="40.580002" />
    <path
       style="fill:#ff2a2a;stroke-width:0"
       d="m 145.76996,145.69509 -18.96072,-0.25358 9.62288,-40.90206 c 5.29258,-22.496109 9.68911,-40.993587 9.77004,-41.105486 0.081,-0.111916 6.10051,18.294019 13.37682,40.902026 7.2763,22.60804 13.29056,41.27232 13.36502,41.47622 0.0745,0.20388 -1.74307,0.318 -4.03894,0.25358 -2.29591,-0.0644 -12.70671,-0.23123 -23.1351,-0.3707 z"
       id="path1330"
       inkscape:export-filename="/home/claudio/mana-a-mana.png"
       inkscape:export-xdpi="40.580002"
       inkscape:export-ydpi="40.580002" />
    <path
       style="fill:#d42aff;stroke-width:0"
       d="m 259.73208,144.65149 -17.85873,-0.24412 9.06361,-39.3744 c 4.98498,-21.655936 9.12598,-39.462558 9.20222,-39.570276 0.0762,-0.107671 5.74593,17.610771 12.59932,39.374416 6.85342,21.76366 12.51813,39.73086 12.58827,39.92715 0.0701,0.19626 -1.64178,0.30612 -3.80423,0.24411 -2.16246,-0.0619 -11.96816,-0.22261 -21.79046,-0.35688 z"
       id="path1620"
       inkscape:export-filename="/home/claudio/mana-a-mana.png"
       inkscape:export-xdpi="40.580002"
       inkscape:export-ydpi="40.580002" />
    <path
       style="fill:#ffd42a;stroke-width:0"
       d="m 87.54134,146.14836 -17.959161,-0.2438 9.114575,-39.32285 c 5.013007,-21.627535 9.177298,-39.410832 9.253959,-39.518393 0.07669,-0.107514 5.77826,17.587681 12.670207,39.322793 6.89196,21.73514 12.58852,39.67882 12.65905,39.87482 0.0705,0.19605 -1.65099,0.30574 -3.8256,0.2438 -2.17463,-0.0617 -12.035493,-0.22229 -21.91303,-0.35637 z"
       id="path1812"
       inkscape:export-filename="/home/claudio/mana-a-mana.png"
       inkscape:export-xdpi="40.580002"
       inkscape:export-ydpi="40.580002" />
    <path
       style="fill:#80e5ff;stroke-width:0"
       d="M 30.517212,146.36164 10.72957,146.11496 20.772144,106.32663 C 26.29555,84.443059 30.883801,66.449245 30.968276,66.340379 c 0.08443,-0.108928 6.366562,17.795903 13.960189,39.788341 7.593627,21.99243 13.870199,40.14852 13.947899,40.34687 0.07774,0.19833 -1.819084,0.30934 -4.215109,0.24668 -2.396013,-0.0627 -13.260836,-0.22494 -24.144043,-0.36063 z"
       id="path2022"
       inkscape:export-filename="/home/claudio/mana-a-mana.png"
       inkscape:export-xdpi="40.580002"
       inkscape:export-ydpi="40.580002" />
  </g>
</svg>
